<svg xmlns="http://www.w3.org/2000/svg" xmlns:xlink="http://www.w3.org/1999/xlink" width="940" zoomAndPan="magnify" viewBox="0 0 705 705.000001" height="940" preserveAspectRatio="xMidYMid meet" version="1.0"><defs><clipPath id="6e38fbb1f7"><path d="M 33.132812 40.796875 L 656 40.796875 L 656 663.203125 L 33.132812 663.203125 Z M 33.132812 40.796875 " clip-rule="nonzero"/></clipPath><clipPath id="108596cc32"><path d="M 344.457031 40.796875 C 172.519531 40.796875 33.132812 180.128906 33.132812 352 C 33.132812 523.875 172.519531 663.203125 344.457031 663.203125 C 516.398438 663.203125 655.785156 523.875 655.785156 352 C 655.785156 180.128906 516.398438 40.796875 344.457031 40.796875 Z M 344.457031 40.796875 " clip-rule="nonzero"/></clipPath><clipPath id="bca295d722"><path d="M 0.132812 0.796875 L 622.992188 0.796875 L 622.992188 623.203125 L 0.132812 623.203125 Z M 0.132812 0.796875 " clip-rule="nonzero"/></clipPath><clipPath id="628a1319d9"><path d="M 311.457031 0.796875 C 139.519531 0.796875 0.132812 140.128906 0.132812 312 C 0.132812 483.875 139.519531 623.203125 311.457031 623.203125 C 483.398438 623.203125 622.785156 483.875 622.785156 312 C 622.785156 140.128906 483.398438 0.796875 311.457031 0.796875 Z M 311.457031 0.796875 " clip-rule="nonzero"/></clipPath><clipPath id="a112dcc09c"><rect x="0" width="623" y="0" height="624"/></clipPath><clipPath id="734299f3d6"><path d="M 212.375 216.574219 L 476.542969 216.574219 L 476.542969 487.96875 L 212.375 487.96875 Z M 212.375 216.574219 " clip-rule="nonzero"/></clipPath><clipPath id="1fa39e0e43"><path d="M 344.457031 216.574219 C 271.511719 216.574219 212.375 277.207031 212.375 352 C 212.375 426.792969 271.511719 487.425781 344.457031 487.425781 C 417.40625 487.425781 476.542969 426.792969 476.542969 352 C 476.542969 277.207031 417.40625 216.574219 344.457031 216.574219 Z M 344.457031 216.574219 " clip-rule="nonzero"/></clipPath><clipPath id="3eb65567e1"><path d="M 0.375 0.574219 L 264.542969 0.574219 L 264.542969 271 L 0.375 271 Z M 0.375 0.574219 " clip-rule="nonzero"/></clipPath><clipPath id="1a9193db9e"><path d="M 132.457031 0.574219 C 59.511719 0.574219 0.375 61.207031 0.375 136 C 0.375 210.792969 59.511719 271.425781 132.457031 271.425781 C 205.40625 271.425781 264.542969 210.792969 264.542969 136 C 264.542969 61.207031 205.40625 0.574219 132.457031 0.574219 Z M 132.457031 0.574219 " clip-rule="nonzero"/></clipPath><clipPath id="f5fbe33cc9"><rect x="0" width="265" y="0" height="272"/></clipPath><clipPath id="277647a9cc"><path d="M 344.457031 259.355469 L 667.859375 259.355469 L 667.859375 444.648438 L 344.457031 444.648438 Z M 344.457031 259.355469 " clip-rule="nonzero"/></clipPath><clipPath id="466acdd009"><path d="M 0.457031 0.355469 L 323.859375 0.355469 L 323.859375 185.648438 L 0.457031 185.648438 Z M 0.457031 0.355469 " clip-rule="nonzero"/></clipPath><clipPath id="307a3cfa8b"><rect x="0" width="324" y="0" height="186"/></clipPath><clipPath id="a6321b5c1c"><path d="M 299.121094 293.246094 L 667.839844 293.246094 L 667.839844 410.796875 L 299.121094 410.796875 Z M 299.121094 293.246094 " clip-rule="nonzero"/></clipPath><clipPath id="0511c82d25"><path d="M 304.972656 332.453125 C 301.707031 338.476562 299.566406 345.328125 299.566406 352.054688 C 299.566406 358.777344 301.402344 365.25 304.664062 371.210938 C 304.765625 371.339844 304.765625 371.464844 304.867188 371.59375 C 317.921875 393.984375 352.386719 410.480469 395.730469 410.796875 L 667.839844 410.796875 L 667.839844 293.246094 L 395.933594 293.246094 C 352.183594 293.566406 317.71875 309.804688 304.972656 332.453125 Z M 304.972656 332.453125 " clip-rule="nonzero"/></clipPath><clipPath id="bd5e5b3c92"><path d="M 0.378906 0.246094 L 368.839844 0.246094 L 368.839844 117.796875 L 0.378906 117.796875 Z M 0.378906 0.246094 " clip-rule="nonzero"/></clipPath><clipPath id="a18aa16aac"><path d="M 5.972656 39.453125 C 2.707031 45.476562 0.566406 52.328125 0.566406 59.054688 C 0.566406 65.777344 2.402344 72.25 5.664062 78.210938 C 5.765625 78.339844 5.765625 78.464844 5.867188 78.59375 C 18.921875 100.984375 53.386719 117.480469 96.730469 117.796875 L 368.839844 117.796875 L 368.839844 0.246094 L 96.933594 0.246094 C 53.183594 0.566406 18.71875 16.804688 5.972656 39.453125 Z M 5.972656 39.453125 " clip-rule="nonzero"/></clipPath><clipPath id="de8c7255b3"><rect x="0" width="369" y="0" height="118"/></clipPath><clipPath id="c280c7f52b"><path d="M 0.285156 0.238281 L 687.148438 0.238281 L 687.148438 695.734375 L 0.285156 695.734375 Z M 0.285156 0.238281 " clip-rule="nonzero"/></clipPath><clipPath id="efb7d14623"><rect x="0" width="688" y="0" height="696"/></clipPath></defs><g transform="matrix(1, 0, 0, 1, 11, 0.000000000000001638)"><g clip-path="url(#efb7d14623)"><g clip-path="url(#6e38fbb1f7)"><g clip-path="url(#108596cc32)"><g transform="matrix(1, 0, 0, 1, 33, 40)"><g clip-path="url(#a112dcc09c)"><g clip-path="url(#bca295d722)"><g clip-path="url(#628a1319d9)"><path fill="#0052ff" d="M 0.132812 0.796875 L 622.539062 0.796875 L 622.539062 623.203125 L 0.132812 623.203125 Z M 0.132812 0.796875 " fill-opacity="1" fill-rule="nonzero"/></g></g></g></g></g></g><g clip-path="url(#734299f3d6)"><g clip-path="url(#1fa39e0e43)"><g transform="matrix(1, 0, 0, 1, 212, 216)"><g clip-path="url(#f5fbe33cc9)"><g clip-path="url(#3eb65567e1)"><g clip-path="url(#1a9193db9e)"><path fill="#030e21" d="M 0.375 0.574219 L 264.542969 0.574219 L 264.542969 270.9375 L 0.375 270.9375 Z M 0.375 0.574219 " fill-opacity="1" fill-rule="nonzero"/></g></g></g></g></g></g><g clip-path="url(#277647a9cc)"><g transform="matrix(1, 0, 0, 1, 344, 259)"><g clip-path="url(#307a3cfa8b)"><g clip-path="url(#466acdd009)"><path fill="#030e21" d="M 0.457031 0.355469 L 324 0.355469 L 324 185.648438 L 0.457031 185.648438 Z M 0.457031 0.355469 " fill-opacity="1" fill-rule="nonzero"/></g></g></g></g><g clip-path="url(#a6321b5c1c)"><g clip-path="url(#0511c82d25)"><g transform="matrix(1, 0, 0, 1, 299, 293)"><g clip-path="url(#de8c7255b3)"><g clip-path="url(#bd5e5b3c92)"><g clip-path="url(#a18aa16aac)"><path fill="#00c2ff" d="M 368.839844 0.246094 L 368.839844 117.796875 L 0.578125 117.796875 L 0.578125 0.246094 Z M 368.839844 0.246094 " fill-opacity="1" fill-rule="nonzero"/></g></g></g></g></g></g><g clip-path="url(#c280c7f52b)"><path fill="#030e21" d="M 325.796875 0.441406 C 324.246094 0.5625 319.210938 0.9375 314.613281 1.308594 C 259.183594 5.785156 202.515625 25.667969 154.914062 57.421875 C 108.683594 88.242188 69.039062 131.617188 43.375 179.339844 C 41.757812 182.382812 39.582031 186.421875 38.589844 188.226562 C 37.65625 190.089844 35.109375 195.246094 33.058594 199.722656 C -7.828125 288.019531 -10.5 389.058594 25.664062 479.164062 C 60.277344 565.472656 129.125 635.007812 214.570312 670.117188 C 289.570312 700.875 372.402344 703.984375 449.144531 678.878906 C 485.621094 666.949219 517.808594 650.046875 548.753906 626.804688 C 573.238281 608.351562 598.40625 582.996094 617.355469 557.769531 C 648.242188 516.695312 670.175781 467.230469 680.242188 416.402344 C 690.246094 365.820312 689.191406 314.492188 677.074219 264.78125 C 646.8125 140.128906 550.308594 41.699219 427.957031 10.691406 C 409.3125 5.96875 394.214844 3.359375 373.644531 1.308594 C 367.183594 0.625 331.203125 0.00390625 325.796875 0.441406 Z M 366.5625 42.320312 C 396.328125 44.683594 423.792969 50.898438 451.941406 61.585938 C 501.964844 80.660156 546.828125 113.90625 581.191406 157.28125 C 586.785156 164.363281 598.527344 181.699219 604.804688 192.078125 C 610.023438 200.839844 623.445312 227.871094 623.445312 229.734375 C 623.445312 229.921875 624.007812 231.226562 624.628906 232.65625 C 629.289062 243.03125 637.117188 269.070312 640.410156 285.289062 C 645.070312 308.15625 646.625 323.628906 646.6875 348.046875 C 646.6875 379.613281 643.332031 403.726562 634.695312 434.234375 C 613.007812 510.792969 561.308594 576.660156 492.023438 615.992188 C 455.234375 636.933594 415.339844 649.363281 370.539062 653.898438 C 360.410156 654.957031 328.53125 654.894531 318.03125 653.835938 C 285.222656 650.605469 254.960938 643.023438 226.375 630.84375 C 214.941406 626 197.542969 616.925781 185.675781 609.65625 C 155.597656 591.199219 125.523438 563.671875 103.835938 534.777344 C 68.230469 487.363281 47.351562 432.371094 42.378906 372.65625 C 41.324219 359.417969 42.007812 323.628906 43.621094 311.386719 C 46.292969 290.816406 50.957031 269.816406 56.859375 251.730469 C 59.65625 243.09375 66.367188 225.507812 67.855469 222.652344 C 68.230469 222.089844 70.40625 217.492188 72.765625 212.523438 C 99.175781 157.03125 145.160156 108.625 199.964844 78.550781 C 236.875 58.292969 278.511719 45.863281 321.136719 42.382812 C 330.273438 41.636719 357.367188 41.574219 366.5625 42.320312 Z M 366.5625 42.320312 " fill-opacity="1" fill-rule="nonzero"/></g></g></g></svg>