<svg xmlns="http://www.w3.org/2000/svg" width="30" height="33" viewBox="0 0 30 33" fill="none"><g clip-path="url(#clip0_1376_2383)"><path d="M11.3693 3.71799C12.5148 3.73677 11.0688 2.53226 11.1734 3.48728C11.219 3.57849 11.16 3.7475 11.3693 3.71799Z" fill="white"></path><path d="M21.2356 4.90662C22.3864 3.77186 20.2645 3.14144 19.8647 3.92746C20.1706 4.25474 20.6481 4.93881 21.2356 4.90662Z" fill="white"></path><path d="M12.7426 31.6095C12.7426 31.6095 12.7775 31.6149 12.7883 31.6149C12.7802 31.6149 12.6649 31.6015 12.7426 31.6095Z" fill="white"></path><path d="M12.7426 31.6202C12.7426 31.6202 12.7775 31.6256 12.7883 31.6256C12.7802 31.6256 12.6649 31.6122 12.7426 31.6202Z" fill="white"></path><path d="M12.7397 31.631C12.7397 31.631 12.7746 31.6364 12.7853 31.6364C12.7773 31.6364 12.6619 31.6229 12.7397 31.631Z" fill="white"></path><path d="M12.7397 31.6417C12.7397 31.6417 12.7746 31.6471 12.7853 31.6471C12.7773 31.6471 12.6619 31.6337 12.7397 31.6417Z" fill="white"></path><path d="M12.7373 31.6525C12.7373 31.6525 12.7722 31.6578 12.7829 31.6578C12.7748 31.6578 12.6595 31.6444 12.7373 31.6525Z" fill="white"></path><path d="M12.7343 31.6632C12.7343 31.6632 12.7692 31.6686 12.78 31.6686C12.7719 31.6686 12.6565 31.6552 12.7343 31.6632Z" fill="white"></path><path d="M12.7343 31.6769C12.7343 31.6769 12.7692 31.6823 12.78 31.6823C12.7719 31.6823 12.6565 31.6688 12.7343 31.6769Z" fill="white"></path><path d="M12.7319 31.6871C12.7319 31.6871 12.7668 31.6925 12.7775 31.6925C12.7695 31.6925 12.6541 31.6791 12.7319 31.6871Z" fill="white"></path><path d="M12.7319 31.6979C12.7319 31.6979 12.7668 31.7032 12.7775 31.7032C12.7695 31.7032 12.6541 31.6898 12.7319 31.6979Z" fill="white"></path><path d="M12.729 31.7086C12.729 31.7086 12.7638 31.714 12.7746 31.714C12.7665 31.714 12.6512 31.7006 12.729 31.7086Z" fill="white"></path><path d="M12.729 31.7194C12.729 31.7194 12.7638 31.7247 12.7746 31.7247C12.7665 31.7247 12.6512 31.7113 12.729 31.7194Z" fill="white"></path><path d="M12.7265 31.7301C12.7265 31.7301 12.7614 31.7355 12.7721 31.7355C12.7641 31.7355 12.6487 31.7221 12.7265 31.7301Z" fill="white"></path><path d="M12.7236 31.7409C12.7236 31.7409 12.7585 31.7462 12.7692 31.7462C12.7612 31.7462 12.6458 31.7328 12.7236 31.7409Z" fill="white"></path><path d="M12.7236 31.7516C12.7236 31.7516 12.7585 31.757 12.7692 31.757C12.7612 31.757 12.6458 31.7435 12.7236 31.7516Z" fill="white"></path><path d="M12.7212 31.7653C12.7212 31.7653 12.756 31.7706 12.7668 31.7706C12.7587 31.7706 12.6434 31.7572 12.7212 31.7653Z" fill="white"></path><path d="M12.7213 31.776C12.7213 31.776 12.7562 31.7814 12.7669 31.7814C12.7589 31.7814 12.6408 31.768 12.7213 31.776Z" fill="white"></path><path d="M12.7184 31.7868C12.7184 31.7868 12.7533 31.7921 12.764 31.7921C12.7559 31.7921 12.6379 31.7787 12.7184 31.7868Z" fill="white"></path><path d="M12.7184 31.7975C12.7184 31.7975 12.7533 31.8029 12.764 31.8029C12.7559 31.8029 12.6379 31.7894 12.7184 31.7975Z" fill="white"></path><path d="M12.7159 31.8082C12.7159 31.8082 12.7508 31.8136 12.7616 31.8136C12.7535 31.8136 12.6355 31.8002 12.7159 31.8082Z" fill="white"></path><path d="M12.713 31.819C12.713 31.819 12.7479 31.8243 12.7586 31.8243C12.7506 31.8243 12.6325 31.8109 12.713 31.819Z" fill="white"></path><path d="M12.713 31.8297C12.713 31.8297 12.7479 31.8351 12.7586 31.8351C12.7506 31.8351 12.6325 31.8217 12.713 31.8297Z" fill="white"></path><path d="M12.7106 31.8405C12.7106 31.8405 12.7455 31.8458 12.7562 31.8458C12.7481 31.8458 12.6301 31.8324 12.7106 31.8405Z" fill="white"></path><path d="M12.7106 31.8512C12.7106 31.8512 12.7455 31.8566 12.7562 31.8566C12.7481 31.8566 12.6301 31.8432 12.7106 31.8512Z" fill="white"></path><path d="M12.7076 31.8644C12.7076 31.8644 12.7425 31.8698 12.7533 31.8698C12.7452 31.8698 12.6272 31.8563 12.7076 31.8644Z" fill="white"></path><path d="M12.7076 31.8751C12.7076 31.8751 12.7425 31.8805 12.7533 31.8805C12.7452 31.8805 12.6272 31.8671 12.7076 31.8751Z" fill="white"></path><path d="M12.7052 31.8859C12.7052 31.8859 12.7401 31.8912 12.7508 31.8912C12.7428 31.8912 12.6247 31.8778 12.7052 31.8859Z" fill="white"></path><path d="M12.7052 31.8966C12.7052 31.8966 12.7401 31.902 12.7508 31.902C12.7428 31.902 12.6247 31.8886 12.7052 31.8966Z" fill="white"></path><path d="M12.7023 31.9074C12.7023 31.9074 12.7372 31.9127 12.7479 31.9127C12.7398 31.9127 12.6218 31.8993 12.7023 31.9074Z" fill="white"></path><path d="M12.6998 31.9181C12.6998 31.9181 12.7347 31.9235 12.7454 31.9235C12.7374 31.9235 12.6194 31.9101 12.6998 31.9181Z" fill="white"></path><path d="M12.6998 31.9288C12.6998 31.9288 12.7347 31.9342 12.7454 31.9342C12.7374 31.9342 12.6194 31.9208 12.6998 31.9288Z" fill="white"></path><path d="M12.6969 31.9396C12.6969 31.9396 12.7318 31.9449 12.7425 31.9449C12.7345 31.9449 12.6164 31.9315 12.6969 31.9396Z" fill="white"></path><path d="M7.49264 1.43783L7.44436 1.46197C7.36388 1.5049 7.608 1.38686 7.49264 1.43783Z" fill="white"></path><path d="M12.6969 31.9528C12.6969 31.9528 12.7318 31.9581 12.7425 31.9581C12.7345 31.9581 12.6164 31.9447 12.6969 31.9528Z" fill="white"></path><path d="M12.6945 31.9635C12.6945 31.9635 12.7293 31.9689 12.7401 31.9689C12.732 31.9689 12.614 31.9555 12.6945 31.9635Z" fill="white"></path><path d="M7.48701 1.42736L7.43872 1.45151C7.35556 1.49711 7.60505 1.37371 7.48701 1.42736Z" fill="white"></path><path d="M12.6945 31.9743C12.6945 31.9743 12.7293 31.9796 12.7401 31.9796C12.732 31.9796 12.614 31.9662 12.6945 31.9743Z" fill="white"></path><path d="M7.4819 1.41635L7.43361 1.44049C7.35313 1.48341 7.59726 1.36538 7.4819 1.41635Z" fill="white"></path><path d="M12.6915 31.985C12.6915 31.985 12.7264 31.9904 12.7371 31.9904C12.7291 31.9904 12.6111 31.9769 12.6915 31.985Z" fill="white"></path><path d="M7.47653 1.4056L7.42824 1.42975C7.34776 1.47267 7.59188 1.35463 7.47653 1.4056Z" fill="white"></path><path d="M12.6891 31.9957C12.6891 31.9957 12.724 32.0011 12.7347 32.0011C12.7266 32.0011 12.6086 31.9877 12.6891 31.9957Z" fill="white"></path><path d="M7.47138 1.39514L7.4231 1.41928C7.33993 1.46489 7.58942 1.34148 7.47138 1.39514Z" fill="white"></path><path d="M12.6891 32.0065C12.6891 32.0065 12.724 32.0118 12.7347 32.0118C12.7266 32.0118 12.6086 31.9984 12.6891 32.0065Z" fill="white"></path><path d="M7.46579 1.38705L7.4175 1.41119C7.33702 1.45412 7.58114 1.33608 7.46579 1.38705Z" fill="white"></path><path d="M12.6862 32.0172C12.6862 32.0172 12.721 32.0226 12.7318 32.0226C12.7237 32.0226 12.6057 32.0092 12.6862 32.0172Z" fill="white"></path><path d="M7.46064 1.37609L7.41235 1.40024C7.32919 1.44584 7.57868 1.32244 7.46064 1.37609Z" fill="white"></path><path d="M12.6862 32.028C12.6862 32.028 12.721 32.0333 12.7318 32.0333C12.7237 32.0333 12.6057 32.0199 12.6862 32.028Z" fill="white"></path><path d="M7.45512 1.36535L7.40683 1.3895C7.32367 1.4351 7.57584 1.3117 7.45512 1.36535Z" fill="white"></path><path d="M29.3882 11.8599C29.4043 11.9216 29.4257 12.002 29.4392 12.0503C29.4231 11.9886 29.407 11.9242 29.3882 11.8599Z" fill="white"></path><path d="M12.6837 32.0416C12.6837 32.0416 12.7186 32.047 12.7293 32.047C12.7213 32.047 12.6032 32.0336 12.6837 32.0416Z" fill="white"></path><path d="M7.45219 1.35461L7.4039 1.37875C7.32074 1.42436 7.57291 1.30096 7.45219 1.35461Z" fill="white"></path><path d="M29.3989 11.8574C29.415 11.9191 29.4365 11.9996 29.4499 12.0479C29.4338 11.9862 29.4177 11.9218 29.3989 11.8574Z" fill="white"></path><path d="M7.44682 1.34387L7.39853 1.36801C7.31537 1.41362 7.56754 1.29021 7.44682 1.34387Z" fill="white"></path><path d="M12.6837 32.0524C12.6837 32.0524 12.7186 32.0577 12.7293 32.0577C12.7213 32.0577 12.6032 32.0443 12.6837 32.0524Z" fill="white"></path><path d="M29.4072 11.8545C29.4233 11.9162 29.4448 11.9994 29.4582 12.045C29.4421 11.9833 29.426 11.9189 29.4072 11.8545Z" fill="white"></path><path d="M14.6792 0C14.8053 0.00536529 14.9314 0.0134132 15.0575 0.0241438C14.9206 0.0134132 14.7624 0.00536529 14.6792 0Z" fill="white"></path><path d="M15.3634 8.67047C15.3205 8.35392 14.8081 8.0481 14.674 7.82275C14.2635 8.00249 13.7297 8.53097 13.8128 9.00848C14.7706 9.19627 14.1857 9.66573 14.7813 9.51282C14.8725 9.15603 15.9804 9.27943 15.3634 8.67047Z" fill="white"></path><path d="M7.71255 16.9863C9.83721 18.1854 8.39931 16.0742 7.10628 16.203C5.34646 16.1815 6.56438 16.5597 7.71255 16.9863Z" fill="white"></path><path d="M7.62926 17.9415C7.87338 18.0462 8.16311 18.0918 8.41528 17.9925C8.90083 17.5096 7.22955 17.3916 7.62926 17.9415Z" fill="white"></path><path d="M8.59239 17.9282C12.3105 19.0576 9.98468 16.5439 8.98942 17.6465C8.82042 17.7028 8.33486 17.6707 8.59239 17.9282Z" fill="white"></path><path d="M12.6808 32.0628C12.6808 32.0628 12.7157 32.0681 12.7264 32.0681C12.7183 32.0681 12.6003 32.052 12.6808 32.0628Z" fill="white"></path><path d="M7.44173 1.33339L7.39344 1.35754C7.30491 1.40582 7.56244 1.27974 7.44173 1.33339Z" fill="white"></path><path d="M19.3955 2.57781C19.755 2.2559 17.3621 0.860921 18.647 1.21771C19.087 1.37599 19.4304 1.65767 19.4894 1.05675C16.8389 0.082955 14.3951 -0.230914 11.9619 0.313662C12.0719 0.367315 11.1625 0.184895 10.7735 0.429016C10.6072 0.592657 10.194 1.28478 10.0841 0.689232C9.03245 0.563148 7.93257 1.78107 8.11767 1.9313C3.77447 0.107099 -2.71752 11.9966 1.21791 15.4625C1.87784 19.0224 4.28417 17.3055 6.16203 20.2833C6.43297 21.4636 8.29473 20.0928 7.87623 21.7426C5.97692 24.0095 9.08879 26.4748 10.1592 27.4432C10.964 30.3137 10.2638 31.1614 12.5548 32.0493C13.3408 31.8159 12.139 31.4913 12.147 31.105C13.9444 29.4391 17.684 27.7088 17.5498 24.5889C14.7787 23.1081 12.9357 20.023 9.44558 19.8272C5.87767 21.2088 7.68845 18.8373 5.57453 18.0781C5.12653 17.7643 6.73075 15.704 4.759 16.4954C3.38281 18.6978 2.33121 12.5465 6.33908 14.1185C7.04461 14.6256 6.48931 15.7201 7.16265 15.7067C7.50335 15.8113 7.66162 15.4277 7.6804 15.1379C7.47384 12.3024 7.41214 14.0247 9.0405 12.5707C9.13439 11.6264 9.61995 11.283 10.5025 10.9101C10.8862 10.3682 11.5085 9.24418 12.1524 10.0517C12.4931 10.0785 13.7324 9.96313 13.5903 9.34612C13.33 8.99201 12.2731 9.35417 12.4662 8.62449C11.9485 7.43876 13.0967 8.92495 13.4105 8.38574C14.1161 8.57352 15.2723 7.09807 14.3763 6.7681C13.8585 6.18329 13.6761 5.47507 13.212 4.87684C12.1148 5.82113 12.6808 4.25178 11.6561 4.0479C10.862 3.47382 9.38388 6.64202 9.40534 7.16245C8.59787 7.38779 9.72726 5.93917 8.72127 5.81308C6.25055 4.60321 9.7675 3.10093 9.90163 4.08009C10.0465 4.35909 10.4972 4.15521 10.2933 3.89767C10.6072 3.76622 11.0739 4.05327 10.4918 3.24311C10.4113 2.97484 11.6158 2.98826 11.4978 2.36588C12.0799 2.14054 11.9378 3.03923 12.0209 3.40675C12.0102 4.32958 13.6278 5.01365 13.4615 3.8789C13.0886 3.03118 14.1724 4.20886 14.2904 3.21628C14.2663 2.45441 12.587 1.76766 13.0698 1.10772C15.9268 -0.595754 14.9557 6.5991 17.5069 5.09413C17.5525 3.07947 18.1078 4.42615 18.4915 3.39065C18.7409 3.0285 19.696 3.34505 19.3928 2.56977L19.3955 2.57781ZM5.934 6.71981C5.82938 7.05246 5.96351 6.78688 5.77304 6.66616C5.77036 6.38985 6.03326 6.48374 5.934 6.71981ZM11.8036 8.27843C11.8868 8.23283 12.0451 8.14162 12.1443 8.16308C12.096 8.17917 11.7795 8.31062 11.8036 8.27843ZM8.68103 9.88533C8.78833 9.78339 9.01368 9.81559 9.16122 9.82095C9.25511 9.80217 8.81516 9.98191 8.68103 9.88533ZM8.09353 10.1938C7.99964 10.1912 7.88965 10.2126 7.73405 10.2529C7.70723 9.94972 8.52543 10.0597 8.09353 10.1938ZM7.95135 9.08054C8.96807 8.97592 8.16596 9.19053 7.84404 9.4883C7.90843 9.14761 7.30483 8.92495 7.95135 9.08054ZM7.00706 9.22272C6.93999 9.37027 6.94804 9.35954 6.8917 9.38368C6.90512 9.2871 7.04462 9.13151 7.00706 9.22272ZM7.4953 8.47158C6.88634 8.4528 6.03862 8.44475 7.21094 8.18186C7.36385 8.09333 7.47116 8.34281 7.4953 8.47158ZM10.2075 1.62279C10.0492 1.73546 9.80774 2.1781 9.77018 1.85082C9.82652 1.75424 10.2128 1.33307 10.2075 1.62279ZM11.0069 2.0386C10.3738 2.58586 10.7923 1.5128 10.972 1.52085C11.0069 1.6523 11.1491 1.88837 11.0069 2.0386ZM11.9512 0.386094C11.9512 0.386094 11.9699 0.380728 11.9726 0.380728C12.037 0.369998 11.8895 0.41292 11.9512 0.386094ZM11.9539 0.396824C11.9539 0.396824 11.986 0.391459 11.9941 0.388776C11.9834 0.396824 11.9082 0.415603 11.9539 0.396824ZM11.9565 0.407555C11.9565 0.407555 11.9753 0.40219 11.978 0.40219C12.0424 0.391459 11.8975 0.434381 11.9565 0.407555ZM11.978 0.418285C11.9619 0.418285 11.9163 0.439747 11.9592 0.415603C11.9753 0.415603 12.0209 0.404872 11.978 0.418285ZM11.9699 1.19089C11.9753 1.17211 11.9539 1.15065 11.9646 1.13187C11.9592 1.10504 11.9995 1.18284 11.9699 1.19089ZM12.4448 1.3438C12.4448 1.3438 12.4314 1.35185 12.4314 1.3438C12.4314 1.34111 12.4394 1.3438 12.4448 1.3438ZM12.2999 2.74414C12.2838 2.66634 12.2731 2.58586 12.2543 2.51075C12.3267 2.4866 12.4609 2.65829 12.2999 2.74414ZM12.6084 0.681184C12.5628 0.694598 12.595 0.584609 12.6004 0.630214C12.6138 0.638262 12.6111 0.662406 12.6084 0.681184ZM14.1295 0.0695418C14.1295 0.0695418 14.1697 0.0614939 14.1804 0.0614939C14.1778 0.0668591 14.1617 0.0695418 14.1295 0.0695418ZM14.1295 0.082955C14.1295 0.082955 14.1697 0.0749071 14.1804 0.0749071C14.1751 0.082955 14.1643 0.082955 14.1295 0.082955ZM14.1295 0.0936856C14.1295 0.0936856 14.1697 0.0856376 14.1804 0.0856376C14.1751 0.0936856 14.1643 0.0936856 14.1295 0.0936856ZM14.1295 0.104416C14.1295 0.104416 14.1697 0.0963682 14.1804 0.0963682C14.1751 0.104416 14.1643 0.104416 14.1295 0.104416ZM14.1322 0.115147C14.1322 0.115147 14.1965 0.101734 14.1751 0.109781C14.1939 0.115147 14.1509 0.112464 14.1322 0.115147ZM15.0201 0.0722244C15.0121 0.0641765 15.063 0.0722244 15.0201 0.0722244V0.0722244ZM15.3581 2.13786C15.3581 2.13786 15.3581 2.12176 15.3581 2.1164C15.3957 2.10835 15.3769 2.12445 15.3581 2.13786ZM15.5969 2.71463C15.6344 2.59123 15.6666 2.49465 15.6613 2.34442C15.7283 2.23712 15.7632 2.68244 15.5969 2.71463ZM17.9496 1.02188C17.9496 1.02188 17.8986 1.00578 17.8905 1.00042C17.9093 1.00847 17.9308 1.01383 17.9496 1.02188Z" fill="white"></path><path d="M29.8762 14.2612C29.8762 14.237 29.8708 14.2156 29.8682 14.1914C29.8682 14.2021 29.8735 14.2504 29.8762 14.2612Z" fill="white"></path><path d="M29.8951 14.4516C29.9246 14.1243 29.7449 14.2074 29.5035 14.2396C29.4042 14.2047 29.4391 14.5079 29.5088 14.4945C29.6376 14.4811 29.769 14.4676 29.8951 14.4516Z" fill="white"></path><path d="M29.9677 15.6264C29.5224 15.452 28.2133 14.6526 28.731 13.6922C29.2864 13.4749 28.892 13.998 29.8041 13.7619C29.5922 10.7037 25.8874 2.95088 22.5636 3.14671C23.8406 3.73689 24.3744 6.74682 25.5602 6.64219C25.8204 6.89973 25.6916 6.78974 25.7184 7.06873C27.3548 10.6232 23.2128 4.27878 23.9828 6.93728C24.3396 7.39602 24.0579 7.4443 23.8486 7.86548C24.1276 8.20617 24.0901 9.22558 24.7178 8.36982C25.0961 8.21959 24.809 9.66017 25.3697 9.13705C26.3059 8.64881 26.1289 9.37581 25.3777 9.6548C25.1739 9.8721 27.2341 11.6024 25.5682 11.1115C24.0096 13.1127 26.8773 14.8725 27.5185 11.6775C28.7364 11.2805 27.0866 13.1959 28.2079 12.7774C28.5889 11.8814 28.393 13.2683 28.7284 13.2227C28.8169 13.1476 29.1173 13.2308 28.9457 13.2898C25.5709 13.3649 23.6823 16.9972 23.2424 20.6107C24.4227 24.4228 23.9184 22.6871 26.2362 23.119C26.1208 26.2416 21.893 29.214 19.5645 30.6411C25.0209 30.3433 30.4748 21.7267 29.9704 15.6264H29.9677ZM24.0767 8.31616C24.0471 8.33762 24.0525 8.34031 24.0686 8.31885C24.0686 8.32421 24.0901 8.30007 24.0767 8.31616ZM24.7473 7.91645L24.7822 7.98888C24.7715 7.97278 24.7581 7.94596 24.7473 7.91645ZM26.66 7.6455C26.4347 7.28871 26.8076 7.43357 26.8398 7.67769C26.6761 7.6455 26.6735 7.6455 26.66 7.6455Z" fill="white"></path></g><defs><clipPath id="clip0_1376_2383"><rect width="30" height="32.0683" fill="white"></rect></clipPath></defs></svg>